<?xml version="1.0" standalone="no"?>
<!DOCTYPE svg PUBLIC "-//W3C//DTD SVG 20010904//EN"
 "http://www.w3.org/TR/2001/REC-SVG-20010904/DTD/svg10.dtd">
<svg version="1.0" xmlns="http://www.w3.org/2000/svg"
 width="250.000000pt" height="100.000000pt" viewBox="0 0 500.000000 1500.000000"
 preserveAspectRatio="xMidYMid meet">
<metadata>
Created by potrace 1.16, written by Peter Selinger 2001-2019
</metadata>
<g transform="translate(0.000000,1500.000000) scale(0.100000,-0.100000)"
fill="#000000" stroke="none">
<path d="M8889 7927 c-120 -50 -198 -143 -235 -282 -18 -64 -18 -226 0 -290
33 -124 107 -220 212 -271 54 -27 68 -29 169 -29 104 0 114 2 177 33 188 92
273 342 199 583 -38 122 -124 216 -236 258 -80 30 -210 29 -286 -2z m215 -119
c62 -19 112 -77 137 -160 18 -58 21 -88 17 -179 -4 -95 -8 -115 -34 -166 -84
-163 -292 -164 -375 -1 -32 62 -45 183 -31 278 13 90 36 141 84 186 55 52 122
66 202 42z"/>
<path d="M12750 7941 c-47 -15 -111 -52 -151 -88 -172 -156 -183 -509 -20
-686 23 -24 69 -59 103 -78 53 -28 76 -34 147 -37 109 -6 177 10 250 59 118
79 181 215 181 389 0 120 -23 202 -80 288 -46 68 -121 125 -195 147 -50 16
-192 19 -235 6z m173 -132 c123 -34 191 -210 158 -404 -15 -83 -39 -132 -85
-172 -105 -93 -254 -60 -321 72 -29 57 -30 63 -30 194 0 129 1 139 28 194 52
105 142 146 250 116z"/>
<path d="M15412 7930 c-170 -61 -262 -215 -262 -439 0 -192 81 -335 228 -404
59 -28 80 -32 173 -35 113 -4 196 11 277 49 l42 21 0 109 0 110 -62 -3 -63 -3
-10 -60 c-9 -51 -15 -62 -39 -74 -43 -20 -139 -26 -193 -10 -70 19 -137 89
-159 165 -24 85 -22 232 6 306 51 136 204 197 335 132 39 -19 40 -21 49 -86
l8 -68 64 0 64 0 0 110 0 109 -45 27 c-25 14 -73 35 -106 45 -82 26 -233 25
-307 -1z"/>
<path d="M16975 7925 c-172 -70 -220 -256 -96 -376 47 -45 67 -55 277 -133 91
-34 127 -70 127 -126 0 -34 -7 -48 -32 -73 -31 -31 -34 -32 -124 -32 -72 0
-101 4 -132 20 -38 19 -40 23 -49 83 l-9 62 -68 0 -69 0 0 -105 0 -104 43 -25
c73 -42 137 -58 251 -64 127 -6 194 7 259 48 66 42 98 95 104 174 5 57 2 73
-21 120 -38 78 -96 118 -251 171 -125 43 -174 71 -190 109 -45 108 89 180 240
128 l50 -17 10 -60 11 -60 67 -3 68 -3 -3 103 -3 103 -53 29 c-78 41 -144 56
-252 56 -78 0 -106 -5 -155 -25z"/>
<path d="M4972 7888 l3 -52 43 -9 42 -8 0 -319 0 -320 -22 -4 c-13 -3 -32 -7
-43 -8 -17 -3 -21 -12 -23 -56 l-3 -52 180 0 181 0 0 50 c0 54 -1 54 -61 64
l-36 6 -7 276 c-4 152 -5 278 -3 280 3 3 65 -146 138 -330 l134 -336 66 0 c44
0 69 4 72 13 2 6 59 153 126 326 67 173 126 322 131 330 6 10 10 -93 10 -271
l0 -287 -37 -6 c-63 -11 -63 -11 -63 -65 l0 -50 181 0 180 0 -3 52 c-2 44 -6
53 -23 56 -11 1 -30 5 -42 8 l-23 4 0 320 0 319 43 8 42 9 3 52 3 52 -179 0
-178 0 -115 -305 c-63 -168 -117 -305 -120 -305 -3 0 -59 137 -125 305 l-119
305 -178 0 -178 0 3 -52z"/>
<path d="M6232 7888 l3 -52 43 -9 42 -8 0 -319 0 -319 -42 -8 -43 -9 -3 -52
-3 -52 181 0 181 0 -3 52 c-2 44 -6 53 -23 56 -69 10 -65 3 -65 111 l0 99 128
4 c121 3 133 6 194 36 105 52 148 123 148 246 0 97 -33 166 -104 213 -84 57
-122 63 -393 63 l-244 0 3 -52z m505 -104 c81 -59 82 -188 1 -247 -22 -16 -48
-21 -133 -25 l-105 -5 0 153 0 152 105 -4 c85 -3 109 -7 132 -24z"/>
<path d="M7342 7888 l3 -52 43 -9 42 -8 0 -319 0 -320 -22 -4 c-13 -3 -32 -7
-43 -8 -17 -3 -21 -12 -23 -56 l-3 -52 181 0 181 0 -3 52 -3 52 -42 9 -43 8 0
319 0 319 43 8 42 9 3 52 3 52 -181 0 -181 0 3 -52z"/>
<path d="M7770 7891 c0 -53 -1 -52 68 -66 l32 -7 0 -318 0 -318 -32 -7 c-69
-14 -68 -13 -68 -66 l0 -49 185 0 185 0 0 49 c0 53 1 52 -67 66 l-33 7 0 114
0 114 83 0 84 0 68 -175 68 -175 108 0 109 0 0 50 c0 49 0 49 -39 60 -38 10
-40 14 -89 124 -67 151 -67 153 -43 161 36 11 99 91 115 146 20 66 20 92 1
157 -20 67 -62 114 -133 149 l-57 28 -272 3 -273 3 0 -50z m490 -94 c49 -17
80 -67 80 -129 0 -43 -5 -55 -33 -83 -38 -38 -82 -48 -192 -43 l-70 3 -3 119
c-1 66 0 126 2 133 7 17 166 17 216 0z"/>
<path d="M9512 7888 l3 -51 45 -11 45 -11 3 -317 2 -316 -32 -7 c-69 -14 -68
-13 -68 -66 l0 -49 185 0 185 0 0 50 c0 54 4 51 -82 65 l-38 6 0 241 c0 194 3
240 13 230 6 -7 96 -142 198 -300 l186 -287 87 -3 86 -3 0 380 0 380 38 6 c62
11 62 11 62 65 l0 50 -185 0 -185 0 0 -50 c0 -46 2 -50 28 -55 15 -3 41 -9 57
-13 l30 -8 3 -242 c1 -133 -1 -242 -5 -242 -5 1 -93 138 -198 305 l-190 305
-138 0 -138 0 3 -52z"/>
<path d="M10790 7890 c0 -54 0 -54 63 -65 l37 -6 0 -319 0 -318 -32 -7 c-69
-14 -68 -13 -68 -66 l0 -49 185 0 185 0 0 49 c0 53 1 52 -67 66 l-33 7 0 99 0
99 108 0 c191 0 287 44 348 160 28 52 26 191 -3 245 -29 54 -78 99 -138 127
-48 22 -63 23 -317 26 l-268 3 0 -51z m490 -96 c107 -43 112 -222 7 -265 -19
-8 -70 -14 -127 -14 l-95 0 -3 134 c-1 74 0 141 2 148 8 20 165 17 216 -3z"/>
<path d="M11602 7888 l3 -52 43 -9 42 -8 0 -319 c0 -352 6 -319 -62 -334 -26
-6 -28 -10 -28 -56 l0 -50 181 0 180 0 -3 52 -3 52 -42 9 -43 8 0 115 0 115
82 -3 82 -3 67 -170 66 -170 107 -3 107 -3 -3 52 c-3 49 -5 52 -38 63 -32 10
-38 19 -89 139 -49 114 -53 130 -39 138 42 24 79 64 104 114 23 48 26 64 22
128 -5 106 -39 159 -132 207 l-69 35 -269 3 -269 3 3 -53z m504 -101 c62 -32
82 -127 41 -188 -29 -43 -76 -57 -189 -58 l-88 -1 0 136 0 136 103 -4 c69 -3
112 -9 133 -21z"/>
<path d="M13342 7888 l3 -53 43 -9 42 -9 0 -318 0 -318 -42 -8 -43 -9 -3 -52
-3 -53 248 3 249 3 65 32 c163 80 246 264 219 480 -19 149 -98 266 -219 326
l-65 32 -249 3 -248 4 3 -54z m441 -89 c53 -14 110 -69 138 -132 20 -45 24
-68 24 -167 0 -106 -2 -120 -28 -172 -50 -103 -112 -138 -239 -138 l-68 0 0
310 0 310 68 0 c37 0 84 -5 105 -11z"/>
<path d="M14202 7888 l3 -52 43 -9 42 -8 0 -258 c0 -296 6 -331 70 -404 62
-71 133 -100 254 -105 164 -7 267 33 333 131 46 69 53 120 53 392 l0 244 43 8
42 9 3 52 3 52 -181 0 -181 0 3 -52 3 -52 43 -9 42 -8 0 -260 c0 -239 -2 -263
-20 -298 -54 -106 -254 -107 -315 -1 -19 33 -20 52 -20 295 l0 260 45 11 45
11 3 51 3 52 -181 0 -181 0 3 -52z"/>
<path d="M15930 7820 l0 -121 68 3 67 3 5 50 5 50 83 3 82 3 0 -315 0 -314
-32 -7 c-69 -14 -68 -13 -68 -66 l0 -49 185 0 185 0 0 49 c0 53 1 52 -68 66
l-32 7 2 311 3 312 83 3 82 3 0 -33 c0 -73 6 -78 76 -78 l64 0 0 120 0 120
-395 0 -395 0 0 -120z"/>
</g>
</svg>
